<svg width="1920" height="500" viewBox="0 0 1920 500" fill="none" xmlns="http://www.w3.org/2000/svg">
<g clip-path="url(#clip0_439_31)">
<rect width="1920" height="500" fill="white"/>
<path d="M1920 0H0V500H1920V0Z" fill="black"/>
<path opacity="0.14" d="M0 348.18L203.65 504.03H0V348.18Z" fill="url(#paint0_linear_439_31)"/>
<path opacity="0.15" d="M101.83 426.1L252.74 348.18L203.65 504.03L101.83 426.1Z" fill="url(#paint1_linear_439_31)"/>
<path opacity="0.15" d="M509.56 504.03L367.39 404.28L203.65 504.03H509.56Z" fill="url(#paint2_linear_439_31)"/>
<path opacity="0.15" d="M539.14 381.35L451.03 462.96L509.56 504.03H583.06L539.14 381.35Z" fill="url(#paint3_linear_439_31)"/>
<path opacity="0.29" d="M564.07 450.97L583.06 504.03H806.58L564.07 450.97Z" fill="url(#paint4_linear_439_31)"/>
<path opacity="0.29" d="M1920 385.09L1716.3 504.03H1920V385.09Z" fill="url(#paint5_linear_439_31)"/>
<path opacity="0.29" d="M1517.16 504.03L1507.14 440.76L1644.69 482.37L1716.3 504.03H1517.16Z" fill="url(#paint6_linear_439_31)"/>
<path opacity="0.29" d="M1649.32 407.18L1644.69 482.37L1716.3 504.03L1774.83 469.85L1649.32 407.18Z" fill="url(#paint7_linear_439_31)"/>
<path opacity="0.29" d="M1240.66 504.03L1303.9 449.34L1480.71 504.03H1240.66Z" fill="url(#paint8_linear_439_31)"/>
<path opacity="0.21" d="M1669.21 417.12L1677.57 278L1897.09 398.47L1774.83 469.85L1669.21 417.12Z" fill="url(#paint9_linear_439_31)"/>
<path opacity="0.14" d="M1392.3 476.68L1423.9 377.04L1507.14 440.76L1517.16 504.03H1480.71L1392.3 476.68Z" fill="url(#paint10_linear_439_31)"/>
<mask id="mask0_439_31" style="mask-type:luminance" maskUnits="userSpaceOnUse" x="0" y="14" width="1920" height="498">
<path d="M1920 14H0V511.62H1920V14Z" fill="white"/>
</mask>
<g mask="url(#mask0_439_31)">
<path d="M1615.9 465.31L1834.32 474.99L1732.34 535.92L1615.9 465.31Z" fill="url(#paint11_linear_439_31)"/>
<path d="M1732.34 535.92L1736.81 656.53L1615.9 465.31L1732.34 535.92Z" fill="url(#paint12_linear_439_31)"/>
<path d="M1732.34 535.92L1834.32 474.99L1736.71 653.86L1732.34 535.92Z" fill="url(#paint13_linear_439_31)"/>
<path d="M121.55 525.04L278.81 406.79L216.27 520.34L121.55 525.04Z" fill="url(#paint14_linear_439_31)"/>
<path d="M278.81 406.79L256.51 619.51L216.27 520.34L278.81 406.79Z" fill="url(#paint15_linear_439_31)"/>
<path d="M307.68 552.94L328.29 460.31L283.68 520.53L307.68 552.94Z" fill="url(#paint16_linear_439_31)"/>
<path d="M328.29 460.31L342.15 528.67L307.68 552.94L328.29 460.31Z" fill="url(#paint17_linear_439_31)"/>
<g opacity="0.31">
<path d="M130.42 325.8L198.51 327.03L147.37 344.82L130.42 325.8Z" fill="url(#paint18_linear_439_31)"/>
<path d="M198.51 327.03L143.01 373.74L147.37 344.82L198.51 327.03Z" fill="url(#paint19_linear_439_31)"/>
<path d="M143.01 373.74L130.42 325.8L147.37 344.82L143.01 373.74Z" fill="url(#paint20_linear_439_31)"/>
<path style="mix-blend-mode:screen" d="M147.37 344.82L187.24 336.52L143.01 373.74L147.37 344.82Z" fill="url(#paint21_linear_439_31)"/>
<path style="mix-blend-mode:screen" d="M198.51 327.03L144.95 360.86L147.37 344.82L198.51 327.03Z" fill="url(#paint22_linear_439_31)"/>
<path style="mix-blend-mode:screen" d="M130.42 325.8L179.62 333.61L198.51 327.03L130.42 325.8Z" fill="url(#paint23_linear_439_31)"/>
<path style="mix-blend-mode:multiply" d="M147.37 344.82L137.29 351.97L143.01 373.74L147.37 344.82Z" fill="url(#paint24_linear_439_31)"/>
<path style="mix-blend-mode:screen" d="M147.37 344.82L138.94 358.24L135.28 344.32L147.37 344.82Z" fill="url(#paint25_linear_439_31)"/>
</g>
<g opacity="0.47">
<path d="M1651.87 96.74L1667.41 116.24L1621.98 136.17L1651.87 96.74Z" fill="url(#paint26_linear_439_31)"/>
<path d="M1667.41 116.24L1657.63 133.92L1621.98 136.17L1667.41 116.24Z" fill="url(#paint27_linear_439_31)"/>
<path style="mix-blend-mode:screen" d="M1621.98 136.17L1661.4 127.1L1657.63 133.92L1621.98 136.17Z" fill="url(#paint28_linear_439_31)"/>
<path style="mix-blend-mode:screen" d="M1655.12 121.63L1645.77 134.67L1621.98 136.17L1655.12 121.63Z" fill="url(#paint29_linear_439_31)"/>
<path style="mix-blend-mode:multiply" d="M1655.12 121.63L1636.2 117.41L1621.98 136.17L1655.12 121.63Z" fill="url(#paint30_linear_439_31)"/>
<path style="mix-blend-mode:screen" d="M1621.98 136.17L1658.85 105.5L1651.87 96.74L1621.98 136.17Z" fill="url(#paint31_linear_439_31)"/>
</g>
<path d="M1747.03 498.31L1749.64 450.37L1812.55 442.37L1747.03 498.31Z" fill="url(#paint32_linear_439_31)"/>
<path d="M1749.64 450.37L1697.48 396.97L1812.55 442.37L1749.64 450.37Z" fill="url(#paint33_linear_439_31)"/>
<path d="M1747.03 498.31L1697.48 396.97L1749.64 450.37L1747.03 498.31Z" fill="url(#paint34_linear_439_31)"/>
<path style="mix-blend-mode:screen" d="M1749.64 450.37L1715.24 433.28L1697.48 396.97L1749.64 450.37Z" fill="url(#paint35_linear_439_31)"/>
<path style="mix-blend-mode:screen" d="M1749.64 450.37L1812.55 442.37L1717.7 417.66L1749.64 450.37Z" fill="url(#paint36_linear_439_31)"/>
<path style="mix-blend-mode:screen" d="M1794.21 444.7L1697.48 396.97L1749.64 450.37L1794.21 444.7Z" fill="url(#paint37_linear_439_31)"/>
<path style="mix-blend-mode:multiply" d="M1749.64 450.37L1798.98 453.96L1766.9 481.35L1749.64 450.37Z" fill="url(#paint38_linear_439_31)"/>
<path style="mix-blend-mode:screen" d="M1749.64 450.37L1785.26 465.67L1812.55 442.37L1749.64 450.37Z" fill="url(#paint39_linear_439_31)"/>
<path d="M198.51 442.03L228.66 415.73L213.78 443.95L198.51 442.03Z" fill="url(#paint40_linear_439_31)"/>
<path d="M213.78 443.95L222.82 462.21L198.51 442.03L213.78 443.95Z" fill="url(#paint41_linear_439_31)"/>
<path d="M228.66 415.73L222.82 462.21L213.78 443.95L228.66 415.73Z" fill="url(#paint42_linear_439_31)"/>
<path style="mix-blend-mode:screen" d="M225.51 440.83L213.78 443.95L222.82 462.21L225.51 440.83Z" fill="url(#paint43_linear_439_31)"/>
<path style="mix-blend-mode:screen" d="M228.66 415.73L213.78 443.95L218.19 452.84L228.66 415.73Z" fill="url(#paint44_linear_439_31)"/>
<path style="mix-blend-mode:multiply" d="M211.9 453.14L213.78 443.95L198.51 442.03L211.9 453.14Z" fill="url(#paint45_linear_439_31)"/>
<path style="mix-blend-mode:screen" d="M213.78 443.95L207.32 449.34L211.9 453.14L213.78 443.95Z" fill="url(#paint46_linear_439_31)"/>
<path style="mix-blend-mode:screen" d="M228.66 415.73L198.51 442.03L206.15 442.99L228.66 415.73Z" fill="url(#paint47_linear_439_31)"/>
</g>
<g filter="url(#filter0_f_439_31)">
<path d="M1735.62 325.46L1669.03 254.98L1757.56 276.5L1735.62 325.46Z" fill="url(#paint48_linear_439_31)"/>
<path d="M1669.03 254.98L1754.21 239.97L1757.56 276.5L1669.03 254.98Z" fill="url(#paint49_linear_439_31)"/>
<path style="mix-blend-mode:screen" d="M1756.76 267.7L1669.03 254.98L1755.28 251.61L1756.76 267.7Z" fill="url(#paint50_linear_439_31)"/>
<path style="mix-blend-mode:screen" d="M1669.03 254.98L1748.19 297.41L1735.62 325.46L1669.03 254.98Z" fill="url(#paint51_linear_439_31)"/>
<path style="mix-blend-mode:screen" d="M1748.19 297.41L1699.09 286.79L1757.56 276.5L1748.19 297.41Z" fill="url(#paint52_linear_439_31)"/>
<path style="mix-blend-mode:screen" d="M1755.98 259.24L1669.03 254.98L1754.21 239.97L1755.98 259.24Z" fill="url(#paint53_linear_439_31)"/>
</g>
<g filter="url(#filter1_f_439_31)">
<path d="M349.41 501.4L415.2 468.78L382.38 555.92L349.41 501.4Z" fill="url(#paint54_linear_439_31)"/>
<path d="M415.2 468.78L413.85 531.54L382.38 555.92L415.2 468.78Z" fill="url(#paint55_linear_439_31)"/>
<path style="mix-blend-mode:screen" d="M415.2 468.78L366.09 528.99L382.38 555.92L415.2 468.78Z" fill="url(#paint56_linear_439_31)"/>
<path style="mix-blend-mode:screen" d="M354.27 509.43L415.2 468.78L374.84 543.44L354.27 509.43Z" fill="url(#paint57_linear_439_31)"/>
<path style="mix-blend-mode:screen" d="M382.38 555.92L414.53 499.93L413.85 531.54L382.38 555.92Z" fill="url(#paint58_linear_439_31)"/>
</g>
<g filter="url(#filter2_f_439_31)">
<path d="M321 301.1L414.21 242.09L365.91 314.59L321 301.1Z" fill="url(#paint59_linear_439_31)"/>
<path d="M414.21 242.09L333.98 253.85L321 301.1L414.21 242.09Z" fill="url(#paint60_linear_439_31)"/>
</g>
<g filter="url(#filter3_f_439_31)">
<path d="M399.81 173.75L452.76 160L417.31 185.42L399.81 173.75Z" fill="url(#paint61_linear_439_31)"/>
<path d="M417.31 185.42L417.21 213.29L399.81 173.75L417.31 185.42Z" fill="url(#paint62_linear_439_31)"/>
<path d="M452.76 160L417.21 213.29L417.31 185.42L452.76 160Z" fill="url(#paint63_linear_439_31)"/>
<path style="mix-blend-mode:screen" d="M433.56 188.78L417.31 185.42L417.21 213.29L433.56 188.78Z" fill="url(#paint64_linear_439_31)"/>
<path style="mix-blend-mode:screen" d="M452.76 160L417.31 185.42L417.27 199L452.76 160Z" fill="url(#paint65_linear_439_31)"/>
<path style="mix-blend-mode:multiply" d="M409.39 195.53L417.31 185.42L399.81 173.75L409.39 195.53Z" fill="url(#paint66_linear_439_31)"/>
<path style="mix-blend-mode:screen" d="M417.31 185.42L406.11 188.07L409.39 195.53L417.31 185.42Z" fill="url(#paint67_linear_439_31)"/>
<path style="mix-blend-mode:screen" d="M452.76 160L399.81 173.75L408.56 179.58L452.76 160Z" fill="url(#paint68_linear_439_31)"/>
</g>
<g filter="url(#filter4_f_439_31)">
<path d="M1413.23 549.11L1344.87 463.76L1421.58 503.39L1413.23 549.11Z" fill="url(#paint69_linear_439_31)"/>
<path d="M1344.87 463.76L1365.25 541.51L1413.23 549.11L1344.87 463.76Z" fill="url(#paint70_linear_439_31)"/>
</g>
<path opacity="0.64" d="M650.66 39.1L641.13 82.9L685.51 70.93L650.66 39.1Z" stroke="white" stroke-miterlimit="10"/>
<path d="M261.5 93.8199L259 127.68L291.02 113.99L261.5 93.8199Z" stroke="url(#paint71_linear_439_31)" stroke-miterlimit="10"/>
<path opacity="0.17" d="M690.6 263.06L673.96 172.48L775.77 190.68L690.6 263.06Z" stroke="white" stroke-miterlimit="10"/>
<path d="M468.63 398.06L442.32 378.9L487.3 354.39L468.63 398.06Z" stroke="white" stroke-miterlimit="10"/>
<path d="M1620.89 408.26L1639.33 386.71L1596.26 374.99L1620.89 408.26Z" stroke="url(#paint72_linear_439_31)" stroke-miterlimit="10"/>
<path opacity="0.15" d="M629.6 323.64L624.56 246.61L668.31 283.77L629.6 323.64Z" stroke="white" stroke-miterlimit="10"/>
<g style="mix-blend-mode:overlay">
<path d="M922.86 327.32L933.31 280.87L985.57 321.52L922.86 327.32Z" stroke="white" stroke-miterlimit="10"/>
</g>
<path opacity="0.26" d="M1368.06 432.34L1397.67 464.53L1368.77 471.75L1368.06 432.34Z" stroke="white" stroke-miterlimit="10"/>
<path opacity="0.32" d="M1232.28 262.84L1221.46 172.7L1288.77 222.58L1232.28 262.84Z" stroke="white" stroke-miterlimit="10"/>
<path d="M1275.51 66.21L1321.07 67.51L1315.44 35L1275.51 66.21Z" stroke="url(#paint73_linear_439_31)" stroke-miterlimit="10"/>
<g style="mix-blend-mode:overlay">
<path d="M1215.12 345.52L1247.64 285.13L1275.51 358.68L1215.12 345.52Z" stroke="white" stroke-miterlimit="10"/>
</g>
<path opacity="0.43" d="M1512.32 144.89L1495.24 131.97L1516.9 123.46L1512.32 144.89Z" stroke="white" stroke-miterlimit="10"/>
</g>
<defs>
<filter id="filter0_f_439_31" x="1612.03" y="182.97" width="202.53" height="199.49" filterUnits="userSpaceOnUse" color-interpolation-filters="sRGB">
<feFlood flood-opacity="0" result="BackgroundImageFix"/>
<feBlend mode="normal" in="SourceGraphic" in2="BackgroundImageFix" result="shape"/>
<feGaussianBlur stdDeviation="28.5" result="effect1_foregroundBlur_439_31"/>
</filter>
<filter id="filter1_f_439_31" x="315.41" y="434.78" width="133.79" height="155.14" filterUnits="userSpaceOnUse" color-interpolation-filters="sRGB">
<feFlood flood-opacity="0" result="BackgroundImageFix"/>
<feBlend mode="normal" in="SourceGraphic" in2="BackgroundImageFix" result="shape"/>
<feGaussianBlur stdDeviation="17" result="effect1_foregroundBlur_439_31"/>
</filter>
<filter id="filter2_f_439_31" x="281" y="202.09" width="173.21" height="152.5" filterUnits="userSpaceOnUse" color-interpolation-filters="sRGB">
<feFlood flood-opacity="0" result="BackgroundImageFix"/>
<feBlend mode="normal" in="SourceGraphic" in2="BackgroundImageFix" result="shape"/>
<feGaussianBlur stdDeviation="20" result="effect1_foregroundBlur_439_31"/>
</filter>
<filter id="filter3_f_439_31" x="388.81" y="149" width="74.9501" height="75.29" filterUnits="userSpaceOnUse" color-interpolation-filters="sRGB">
<feFlood flood-opacity="0" result="BackgroundImageFix"/>
<feBlend mode="normal" in="SourceGraphic" in2="BackgroundImageFix" result="shape"/>
<feGaussianBlur stdDeviation="5.5" result="effect1_foregroundBlur_439_31"/>
</filter>
<filter id="filter4_f_439_31" x="1300.87" y="419.76" width="164.71" height="173.35" filterUnits="userSpaceOnUse" color-interpolation-filters="sRGB">
<feFlood flood-opacity="0" result="BackgroundImageFix"/>
<feBlend mode="normal" in="SourceGraphic" in2="BackgroundImageFix" result="shape"/>
<feGaussianBlur stdDeviation="22" result="effect1_foregroundBlur_439_31"/>
</filter>
<linearGradient id="paint0_linear_439_31" x1="61.29" y1="527.77" x2="131.23" y2="352.36" gradientUnits="userSpaceOnUse">
<stop stop-color="#7B5AF2"/>
<stop offset="1" stop-color="#79E8F2"/>
</linearGradient>
<linearGradient id="paint1_linear_439_31" x1="146.59" y1="480.5" x2="225.31" y2="283.05" gradientUnits="userSpaceOnUse">
<stop stop-color="#7B5AF2"/>
<stop offset="1" stop-color="#79E8F2"/>
</linearGradient>
<linearGradient id="paint2_linear_439_31" x1="335.88" y1="556.01" x2="409.94" y2="370.26" gradientUnits="userSpaceOnUse">
<stop stop-color="#7B5AF2"/>
<stop offset="1" stop-color="#79E8F2"/>
</linearGradient>
<linearGradient id="paint3_linear_439_31" x1="509.16" y1="503.27" x2="569.51" y2="351.91" gradientUnits="userSpaceOnUse">
<stop stop-color="#7B5AF2"/>
<stop offset="1" stop-color="#79E8F2"/>
</linearGradient>
<linearGradient id="paint4_linear_439_31" x1="662.31" y1="535.22" x2="702.3" y2="434.92" gradientUnits="userSpaceOnUse">
<stop stop-color="#7B5AF2"/>
<stop offset="1" stop-color="#79E8F2"/>
</linearGradient>
<linearGradient id="paint5_linear_439_31" x1="1804.49" y1="538.3" x2="1894.31" y2="313.01" gradientUnits="userSpaceOnUse">
<stop stop-color="#7B5AF2"/>
<stop offset="1" stop-color="#79E8F2"/>
</linearGradient>
<linearGradient id="paint6_linear_439_31" x1="1587.99" y1="531.91" x2="1623.62" y2="442.54" gradientUnits="userSpaceOnUse">
<stop stop-color="#7B5AF2"/>
<stop offset="1" stop-color="#79E8F2"/>
</linearGradient>
<linearGradient id="paint7_linear_439_31" x1="1687.86" y1="499.24" x2="1722.43" y2="412.53" gradientUnits="userSpaceOnUse">
<stop stop-color="#7B5AF2"/>
<stop offset="1" stop-color="#79E8F2"/>
</linearGradient>
<linearGradient id="paint8_linear_439_31" x1="1344.37" y1="544.95" x2="1387.32" y2="437.22" gradientUnits="userSpaceOnUse">
<stop stop-color="#7B5AF2"/>
<stop offset="1" stop-color="#79E8F2"/>
</linearGradient>
<linearGradient id="paint9_linear_439_31" x1="1800.56" y1="480.25" x2="1749.33" y2="267.02" gradientUnits="userSpaceOnUse">
<stop stop-color="#5A5DF2"/>
<stop offset="1" stop-color="#A0A6FA"/>
</linearGradient>
<linearGradient id="paint10_linear_439_31" x1="1466.31" y1="527.76" x2="1430.75" y2="379.74" gradientUnits="userSpaceOnUse">
<stop stop-color="#5A5DF2"/>
<stop offset="1" stop-color="#A0A6FA"/>
</linearGradient>
<linearGradient id="paint11_linear_439_31" x1="1796.32" y1="417.218" x2="1596.33" y2="566.052" gradientUnits="userSpaceOnUse">
<stop stop-color="#BB88FF"/>
<stop offset="1" stop-color="#006EB7"/>
</linearGradient>
<linearGradient id="paint12_linear_439_31" x1="1713.97" y1="453.643" x2="1661.99" y2="602.099" gradientUnits="userSpaceOnUse">
<stop stop-color="#A664FF"/>
<stop offset="0.45" stop-color="#235FB7"/>
<stop offset="1" stop-color="#231C7F"/>
</linearGradient>
<linearGradient id="paint13_linear_439_31" x1="1825.02" y1="447.91" x2="1715.59" y2="625.746" gradientUnits="userSpaceOnUse">
<stop stop-color="#A664FF"/>
<stop offset="0.45" stop-color="#235FB7"/>
<stop offset="1" stop-color="#231C7F"/>
</linearGradient>
<linearGradient id="paint14_linear_439_31" x1="287.795" y1="418.21" x2="106.004" y2="578.016" gradientUnits="userSpaceOnUse">
<stop stop-color="#A664FF"/>
<stop offset="0.45" stop-color="#235FB7"/>
<stop offset="1" stop-color="#231C7F"/>
</linearGradient>
<linearGradient id="paint15_linear_439_31" x1="258.186" y1="502.104" x2="189.581" y2="715.876" gradientUnits="userSpaceOnUse">
<stop stop-color="#BB88FF"/>
<stop offset="1" stop-color="#006EB7"/>
</linearGradient>
<linearGradient id="paint16_linear_439_31" x1="336.812" y1="469.769" x2="297.985" y2="532.27" gradientUnits="userSpaceOnUse">
<stop stop-color="#A664FF"/>
<stop offset="0.45" stop-color="#235FB7"/>
<stop offset="1" stop-color="#231C7F"/>
</linearGradient>
<linearGradient id="paint17_linear_439_31" x1="325.771" y1="554.725" x2="314.751" y2="422.104" gradientUnits="userSpaceOnUse">
<stop stop-color="#BB88FF"/>
<stop offset="1" stop-color="#006EB7"/>
</linearGradient>
<linearGradient id="paint18_linear_439_31" x1="184.948" y1="324.123" x2="120.14" y2="324.235" gradientUnits="userSpaceOnUse">
<stop stop-color="#FF5992"/>
<stop offset="1" stop-color="#00A2E9"/>
</linearGradient>
<linearGradient id="paint19_linear_439_31" x1="162.072" y1="339.404" x2="113.43" y2="351.521" gradientUnits="userSpaceOnUse">
<stop stop-color="#FF5992"/>
<stop offset="1" stop-color="#00A2E9"/>
</linearGradient>
<linearGradient id="paint20_linear_439_31" x1="157.396" y1="341.36" x2="137.438" y2="339.51" gradientUnits="userSpaceOnUse">
<stop stop-color="#FF5992"/>
<stop offset="1" stop-color="#00A2E9"/>
</linearGradient>
<linearGradient id="paint21_linear_439_31" x1="156.383" y1="343.393" x2="117.616" y2="353.05" gradientUnits="userSpaceOnUse">
<stop stop-color="#FF2E51"/>
<stop offset="1" stop-color="#00A2E9"/>
</linearGradient>
<linearGradient id="paint22_linear_439_31" x1="163.081" y1="332.954" x2="118.162" y2="344.138" gradientUnits="userSpaceOnUse">
<stop stop-color="#FF2E51"/>
<stop offset="1" stop-color="#00A2E9"/>
</linearGradient>
<linearGradient id="paint23_linear_439_31" x1="116.456" y1="313.922" x2="167.792" y2="318.078" gradientUnits="userSpaceOnUse">
<stop stop-color="#FF2E51"/>
<stop offset="1" stop-color="#00A2E9"/>
</linearGradient>
<linearGradient id="paint24_linear_439_31" x1="134.372" y1="333.528" x2="133.209" y2="362.598" gradientUnits="userSpaceOnUse">
<stop stop-color="#FF2E51"/>
<stop offset="1" stop-color="#00A2E9"/>
</linearGradient>
<linearGradient id="paint25_linear_439_31" x1="143.261" y1="322.145" x2="131.413" y2="337.146" gradientUnits="userSpaceOnUse">
<stop stop-color="#FF2E51"/>
<stop offset="1" stop-color="#00A2E9"/>
</linearGradient>
<linearGradient id="paint26_linear_439_31" x1="1684.24" y1="119.529" x2="1648" y2="117.343" gradientUnits="userSpaceOnUse">
<stop stop-color="#FF5992"/>
<stop offset="1" stop-color="#00A2E9"/>
</linearGradient>
<linearGradient id="paint27_linear_439_31" x1="1658.79" y1="131.774" x2="1627.57" y2="119.71" gradientUnits="userSpaceOnUse">
<stop stop-color="#FF5992"/>
<stop offset="1" stop-color="#00A2E9"/>
</linearGradient>
<linearGradient id="paint28_linear_439_31" x1="1655.12" y1="136.95" x2="1625.41" y2="125.464" gradientUnits="userSpaceOnUse">
<stop stop-color="#FF2E51"/>
<stop offset="1" stop-color="#00A2E9"/>
</linearGradient>
<linearGradient id="paint29_linear_439_31" x1="1648.92" y1="133.031" x2="1626.14" y2="124.224" gradientUnits="userSpaceOnUse">
<stop stop-color="#FF2E51"/>
<stop offset="1" stop-color="#00A2E9"/>
</linearGradient>
<linearGradient id="paint30_linear_439_31" x1="1648.92" y1="133.031" x2="1626.14" y2="124.224" gradientUnits="userSpaceOnUse">
<stop stop-color="#FF2E51"/>
<stop offset="1" stop-color="#00A2E9"/>
</linearGradient>
<linearGradient id="paint31_linear_439_31" x1="1650.9" y1="121.971" x2="1630.19" y2="113.967" gradientUnits="userSpaceOnUse">
<stop stop-color="#FF2E51"/>
<stop offset="1" stop-color="#00A2E9"/>
</linearGradient>
<linearGradient id="paint32_linear_439_31" x1="1729.83" y1="427.287" x2="1774.86" y2="466.762" gradientUnits="userSpaceOnUse">
<stop stop-color="#FF5992"/>
<stop offset="1" stop-color="#00A2E9"/>
</linearGradient>
<linearGradient id="paint33_linear_439_31" x1="1695.73" y1="416.065" x2="1831.56" y2="456.277" gradientUnits="userSpaceOnUse">
<stop stop-color="#FF5992"/>
<stop offset="1" stop-color="#00A2E9"/>
</linearGradient>
<linearGradient id="paint34_linear_439_31" x1="1726.16" y1="430.073" x2="1774.88" y2="532.307" gradientUnits="userSpaceOnUse">
<stop stop-color="#FF5992"/>
<stop offset="1" stop-color="#00A2E9"/>
</linearGradient>
<linearGradient id="paint35_linear_439_31" x1="1681.16" y1="409.148" x2="1733.09" y2="427.721" gradientUnits="userSpaceOnUse">
<stop stop-color="#FF2E51"/>
<stop offset="1" stop-color="#00A2E9"/>
</linearGradient>
<linearGradient id="paint36_linear_439_31" x1="1700.13" y1="418.053" x2="1775.7" y2="445.089" gradientUnits="userSpaceOnUse">
<stop stop-color="#FF2E51"/>
<stop offset="1" stop-color="#00A2E9"/>
</linearGradient>
<linearGradient id="paint37_linear_439_31" x1="1795.96" y1="425.674" x2="1742.09" y2="424.623" gradientUnits="userSpaceOnUse">
<stop stop-color="#FF2E51"/>
<stop offset="1" stop-color="#00A2E9"/>
</linearGradient>
<linearGradient id="paint38_linear_439_31" x1="1799.33" y1="467.25" x2="1772.07" y2="466.721" gradientUnits="userSpaceOnUse">
<stop stop-color="#FF2E51"/>
<stop offset="1" stop-color="#00A2E9"/>
</linearGradient>
<linearGradient id="paint39_linear_439_31" x1="1813.13" y1="454.894" x2="1778.52" y2="454.208" gradientUnits="userSpaceOnUse">
<stop stop-color="#FF2E51"/>
<stop offset="1" stop-color="#00A2E9"/>
</linearGradient>
<linearGradient id="paint40_linear_439_31" x1="228.471" y1="422.057" x2="194.234" y2="454.641" gradientUnits="userSpaceOnUse">
<stop stop-color="#FF5992"/>
<stop offset="1" stop-color="#00A2E9"/>
</linearGradient>
<linearGradient id="paint41_linear_439_31" x1="233.388" y1="429.598" x2="215.145" y2="447.947" gradientUnits="userSpaceOnUse">
<stop stop-color="#FF5992"/>
<stop offset="1" stop-color="#00A2E9"/>
</linearGradient>
<linearGradient id="paint42_linear_439_31" x1="230.436" y1="431.908" x2="198.018" y2="484.123" gradientUnits="userSpaceOnUse">
<stop stop-color="#FF5992"/>
<stop offset="1" stop-color="#00A2E9"/>
</linearGradient>
<linearGradient id="paint43_linear_439_31" x1="231.095" y1="442.84" x2="206.046" y2="463.421" gradientUnits="userSpaceOnUse">
<stop stop-color="#FF2E51"/>
<stop offset="1" stop-color="#00A2E9"/>
</linearGradient>
<linearGradient id="paint44_linear_439_31" x1="240.395" y1="420.628" x2="189.723" y2="462.252" gradientUnits="userSpaceOnUse">
<stop stop-color="#FF2E51"/>
<stop offset="1" stop-color="#00A2E9"/>
</linearGradient>
<linearGradient id="paint45_linear_439_31" x1="217.889" y1="442.985" x2="207.735" y2="446.796" gradientUnits="userSpaceOnUse">
<stop stop-color="#FF2E51"/>
<stop offset="1" stop-color="#00A2E9"/>
</linearGradient>
<linearGradient id="paint46_linear_439_31" x1="217.609" y1="446.906" x2="211.693" y2="449.132" gradientUnits="userSpaceOnUse">
<stop stop-color="#FF2E51"/>
<stop offset="1" stop-color="#00A2E9"/>
</linearGradient>
<linearGradient id="paint47_linear_439_31" x1="242.163" y1="420.232" x2="214.256" y2="430.69" gradientUnits="userSpaceOnUse">
<stop stop-color="#FF2E51"/>
<stop offset="1" stop-color="#00A2E9"/>
</linearGradient>
<linearGradient id="paint48_linear_439_31" x1="1694.06" y1="282.65" x2="1872.13" y2="341.773" gradientUnits="userSpaceOnUse">
<stop stop-color="#FF5992"/>
<stop offset="1" stop-color="#00A2E9"/>
</linearGradient>
<linearGradient id="paint49_linear_439_31" x1="1676.33" y1="234.681" x2="1776.69" y2="268.55" gradientUnits="userSpaceOnUse">
<stop stop-color="#FF5992"/>
<stop offset="1" stop-color="#00A2E9"/>
</linearGradient>
<linearGradient id="paint50_linear_439_31" x1="1661.04" y1="250.854" x2="1725.96" y2="256.312" gradientUnits="userSpaceOnUse">
<stop stop-color="#FF2E51"/>
<stop offset="1" stop-color="#00A2E9"/>
</linearGradient>
<linearGradient id="paint51_linear_439_31" x1="1648.51" y1="278.849" x2="1823.09" y2="313.004" gradientUnits="userSpaceOnUse">
<stop stop-color="#FF2E51"/>
<stop offset="1" stop-color="#00A2E9"/>
</linearGradient>
<linearGradient id="paint52_linear_439_31" x1="1691.39" y1="274.071" x2="1804.08" y2="296.127" gradientUnits="userSpaceOnUse">
<stop stop-color="#FF2E51"/>
<stop offset="1" stop-color="#00A2E9"/>
</linearGradient>
<linearGradient id="paint53_linear_439_31" x1="1665.82" y1="243.364" x2="1749.97" y2="249.436" gradientUnits="userSpaceOnUse">
<stop stop-color="#FF2E51"/>
<stop offset="1" stop-color="#00A2E9"/>
</linearGradient>
<linearGradient id="paint54_linear_439_31" x1="399.752" y1="474.775" x2="343.503" y2="564.151" gradientUnits="userSpaceOnUse">
<stop stop-color="#FF5992"/>
<stop offset="1" stop-color="#00A2E9"/>
</linearGradient>
<linearGradient id="paint55_linear_439_31" x1="395.289" y1="447.307" x2="399.287" y2="521.107" gradientUnits="userSpaceOnUse">
<stop stop-color="#FF5992"/>
<stop offset="1" stop-color="#00A2E9"/>
</linearGradient>
<linearGradient id="paint56_linear_439_31" x1="408.555" y1="470.021" x2="350.952" y2="591.45" gradientUnits="userSpaceOnUse">
<stop stop-color="#FF2E51"/>
<stop offset="1" stop-color="#00A2E9"/>
</linearGradient>
<linearGradient id="paint57_linear_439_31" x1="391.155" y1="464.954" x2="377.59" y2="515.845" gradientUnits="userSpaceOnUse">
<stop stop-color="#FF2E51"/>
<stop offset="1" stop-color="#00A2E9"/>
</linearGradient>
<linearGradient id="paint58_linear_439_31" x1="409.608" y1="500.547" x2="399.351" y2="539.006" gradientUnits="userSpaceOnUse">
<stop stop-color="#FF2E51"/>
<stop offset="1" stop-color="#00A2E9"/>
</linearGradient>
<linearGradient id="paint59_linear_439_31" x1="403.295" y1="240.056" x2="315.114" y2="339.801" gradientUnits="userSpaceOnUse">
<stop stop-color="#A664FF"/>
<stop offset="0.45" stop-color="#235FB7"/>
<stop offset="1" stop-color="#231C7F"/>
</linearGradient>
<linearGradient id="paint60_linear_439_31" x1="295.145" y1="263.981" x2="443.479" y2="223.635" gradientUnits="userSpaceOnUse">
<stop stop-color="#BB88FF"/>
<stop offset="1" stop-color="#006EB7"/>
</linearGradient>
<linearGradient id="paint61_linear_439_31" x1="448.55" y1="158.95" x2="386.8" y2="178.11" gradientUnits="userSpaceOnUse">
<stop stop-color="#FF5992"/>
<stop offset="1" stop-color="#00A2E9"/>
</linearGradient>
<linearGradient id="paint62_linear_439_31" x1="449.99" y1="171.17" x2="416.5" y2="182.59" gradientUnits="userSpaceOnUse">
<stop stop-color="#FF5992"/>
<stop offset="1" stop-color="#00A2E9"/>
</linearGradient>
<linearGradient id="paint63_linear_439_31" x1="444.97" y1="172.22" x2="373.55" y2="216.54" gradientUnits="userSpaceOnUse">
<stop stop-color="#FF5992"/>
<stop offset="1" stop-color="#00A2E9"/>
</linearGradient>
<linearGradient id="paint64_linear_439_31" x1="439.15" y1="186.02" x2="395.96" y2="196.04" gradientUnits="userSpaceOnUse">
<stop stop-color="#FF2E51"/>
<stop offset="1" stop-color="#00A2E9"/>
</linearGradient>
<linearGradient id="paint65_linear_439_31" x1="464.03" y1="164.43" x2="376.66" y2="184.7" gradientUnits="userSpaceOnUse">
<stop stop-color="#FF2E51"/>
<stop offset="1" stop-color="#00A2E9"/>
</linearGradient>
<linearGradient id="paint66_linear_439_31" x1="422.87" y1="178.18" x2="408.12" y2="176.68" gradientUnits="userSpaceOnUse">
<stop stop-color="#FF2E51"/>
<stop offset="1" stop-color="#00A2E9"/>
</linearGradient>
<linearGradient id="paint67_linear_439_31" x1="420.14" y1="182.82" x2="411.54" y2="181.95" gradientUnits="userSpaceOnUse">
<stop stop-color="#FF2E51"/>
<stop offset="1" stop-color="#00A2E9"/>
</linearGradient>
<linearGradient id="paint68_linear_439_31" x1="466.44" y1="165.03" x2="425.87" y2="160.91" gradientUnits="userSpaceOnUse">
<stop stop-color="#FF2E51"/>
<stop offset="1" stop-color="#00A2E9"/>
</linearGradient>
<linearGradient id="paint69_linear_439_31" x1="1356.12" y1="487.432" x2="1428.13" y2="532.452" gradientUnits="userSpaceOnUse">
<stop stop-color="#A664FF"/>
<stop offset="0.45" stop-color="#235FB7"/>
<stop offset="1" stop-color="#231C7F"/>
</linearGradient>
<linearGradient id="paint70_linear_439_31" x1="1410.75" y1="569.847" x2="1354.74" y2="426.822" gradientUnits="userSpaceOnUse">
<stop stop-color="#BB88FF"/>
<stop offset="1" stop-color="#006EB7"/>
</linearGradient>
<linearGradient id="paint71_linear_439_31" x1="258.44" y1="110.69" x2="292.05" y2="110.69" gradientUnits="userSpaceOnUse">
<stop stop-color="#7B5AF2"/>
<stop offset="1" stop-color="#7B76F2"/>
</linearGradient>
<linearGradient id="paint72_linear_439_31" x1="1595" y1="391.6" x2="1640.23" y2="391.6" gradientUnits="userSpaceOnUse">
<stop stop-color="#7B5AF2"/>
<stop offset="1" stop-color="#7B76F2"/>
</linearGradient>
<linearGradient id="paint73_linear_439_31" x1="1294.86" y1="74.95" x2="1311.78" y2="32.49" gradientUnits="userSpaceOnUse">
<stop stop-color="#7B5AF2"/>
<stop offset="1" stop-color="#7B76F2"/>
</linearGradient>
<clipPath id="clip0_439_31">
<rect width="1920" height="500" fill="white"/>
</clipPath>
</defs>
</svg>
