<svg width="1920" height="377" viewBox="0 0 1920 377" fill="none" xmlns="http://www.w3.org/2000/svg">
<g clip-path="url(#clip0_439_31)">
<rect width="1920" height="377" fill="white"/>
<path d="M1920 -123H0V377H1920V-123Z" fill="black"/>
<path opacity="0.14" d="M0 225.18L203.65 381.03H0V225.18Z" fill="url(#paint0_linear_439_31)"/>
<path opacity="0.15" d="M101.83 303.1L252.74 225.18L203.65 381.03L101.83 303.1Z" fill="url(#paint1_linear_439_31)"/>
<path opacity="0.15" d="M509.56 381.03L367.39 281.28L203.65 381.03H509.56Z" fill="url(#paint2_linear_439_31)"/>
<path opacity="0.15" d="M539.14 258.35L451.03 339.96L509.56 381.03H583.06L539.14 258.35Z" fill="url(#paint3_linear_439_31)"/>
<path opacity="0.29" d="M564.07 327.97L583.06 381.03H806.58L564.07 327.97Z" fill="url(#paint4_linear_439_31)"/>
<path opacity="0.29" d="M1920 262.09L1716.3 381.03H1920V262.09Z" fill="url(#paint5_linear_439_31)"/>
<path opacity="0.29" d="M1517.16 381.03L1507.14 317.76L1644.69 359.37L1716.3 381.03H1517.16Z" fill="url(#paint6_linear_439_31)"/>
<path opacity="0.29" d="M1649.32 284.18L1644.69 359.37L1716.3 381.03L1774.83 346.85L1649.32 284.18Z" fill="url(#paint7_linear_439_31)"/>
<path opacity="0.29" d="M1240.66 381.03L1303.9 326.34L1480.71 381.03H1240.66Z" fill="url(#paint8_linear_439_31)"/>
<path opacity="0.21" d="M1669.21 294.12L1677.57 155L1897.09 275.47L1774.83 346.85L1669.21 294.12Z" fill="url(#paint9_linear_439_31)"/>
<path opacity="0.14" d="M1392.3 353.68L1423.9 254.04L1507.14 317.76L1517.16 381.03H1480.71L1392.3 353.68Z" fill="url(#paint10_linear_439_31)"/>
<mask id="mask0_439_31" style="mask-type:luminance" maskUnits="userSpaceOnUse" x="0" y="-120" width="1920" height="498">
<path d="M1920 -120H0V377.62H1920V-120Z" fill="white"/>
</mask>
<g mask="url(#mask0_439_31)">
<path d="M1615.9 331.31L1834.32 340.99L1732.34 401.92L1615.9 331.31Z" fill="url(#paint11_linear_439_31)"/>
<path d="M1732.34 401.92L1736.81 522.53L1615.9 331.31L1732.34 401.92Z" fill="url(#paint12_linear_439_31)"/>
<path d="M1732.34 401.92L1834.32 340.99L1736.71 519.86L1732.34 401.92Z" fill="url(#paint13_linear_439_31)"/>
<path d="M121.55 391.04L278.81 272.79L216.27 386.34L121.55 391.04Z" fill="url(#paint14_linear_439_31)"/>
<path d="M278.81 272.79L256.51 485.51L216.27 386.34L278.81 272.79Z" fill="url(#paint15_linear_439_31)"/>
<path d="M307.68 418.94L328.29 326.31L283.68 386.53L307.68 418.94Z" fill="url(#paint16_linear_439_31)"/>
<path d="M328.29 326.31L342.15 394.67L307.68 418.94L328.29 326.31Z" fill="url(#paint17_linear_439_31)"/>
<g opacity="0.31">
<path d="M130.42 191.8L198.51 193.03L147.37 210.82L130.42 191.8Z" fill="url(#paint18_linear_439_31)"/>
<path d="M198.51 193.03L143.01 239.74L147.37 210.82L198.51 193.03Z" fill="url(#paint19_linear_439_31)"/>
<path d="M143.01 239.74L130.42 191.8L147.37 210.82L143.01 239.74Z" fill="url(#paint20_linear_439_31)"/>
<path style="mix-blend-mode:screen" d="M147.37 210.82L187.24 202.52L143.01 239.74L147.37 210.82Z" fill="url(#paint21_linear_439_31)"/>
<path style="mix-blend-mode:screen" d="M198.51 193.03L144.95 226.86L147.37 210.82L198.51 193.03Z" fill="url(#paint22_linear_439_31)"/>
<path style="mix-blend-mode:screen" d="M130.42 191.8L179.62 199.61L198.51 193.03L130.42 191.8Z" fill="url(#paint23_linear_439_31)"/>
<path style="mix-blend-mode:multiply" d="M147.37 210.82L137.29 217.97L143.01 239.74L147.37 210.82Z" fill="url(#paint24_linear_439_31)"/>
<path style="mix-blend-mode:screen" d="M147.37 210.82L138.94 224.24L135.28 210.32L147.37 210.82Z" fill="url(#paint25_linear_439_31)"/>
</g>
<g opacity="0.47">
<path d="M1653.89 69L1669.43 88.5L1624 108.43L1653.89 69Z" fill="url(#paint26_linear_439_31)"/>
<path d="M1669.43 88.5L1659.65 106.18L1624 108.43L1669.43 88.5Z" fill="url(#paint27_linear_439_31)"/>
<path style="mix-blend-mode:screen" d="M1624 108.43L1663.42 99.36L1659.65 106.18L1624 108.43Z" fill="url(#paint28_linear_439_31)"/>
<path style="mix-blend-mode:screen" d="M1657.14 93.89L1647.79 106.93L1624 108.43L1657.14 93.89Z" fill="url(#paint29_linear_439_31)"/>
<path style="mix-blend-mode:multiply" d="M1657.14 93.89L1638.22 89.67L1624 108.43L1657.14 93.89Z" fill="url(#paint30_linear_439_31)"/>
<path style="mix-blend-mode:screen" d="M1624 108.43L1660.87 77.76L1653.89 69L1624 108.43Z" fill="url(#paint31_linear_439_31)"/>
</g>
<path d="M1747.03 364.31L1749.64 316.37L1812.55 308.37L1747.03 364.31Z" fill="url(#paint32_linear_439_31)"/>
<path d="M1749.64 316.37L1697.48 262.97L1812.55 308.37L1749.64 316.37Z" fill="url(#paint33_linear_439_31)"/>
<path d="M1747.03 364.31L1697.48 262.97L1749.64 316.37L1747.03 364.31Z" fill="url(#paint34_linear_439_31)"/>
<path style="mix-blend-mode:screen" d="M1749.64 316.37L1715.24 299.28L1697.48 262.97L1749.64 316.37Z" fill="url(#paint35_linear_439_31)"/>
<path style="mix-blend-mode:screen" d="M1749.64 316.37L1812.55 308.37L1717.7 283.66L1749.64 316.37Z" fill="url(#paint36_linear_439_31)"/>
<path style="mix-blend-mode:screen" d="M1794.21 310.7L1697.48 262.97L1749.64 316.37L1794.21 310.7Z" fill="url(#paint37_linear_439_31)"/>
<path style="mix-blend-mode:multiply" d="M1749.64 316.37L1798.98 319.96L1766.9 347.35L1749.64 316.37Z" fill="url(#paint38_linear_439_31)"/>
<path style="mix-blend-mode:screen" d="M1749.64 316.37L1785.26 331.67L1812.55 308.37L1749.64 316.37Z" fill="url(#paint39_linear_439_31)"/>
<path d="M198.51 308.03L228.66 281.73L213.78 309.95L198.51 308.03Z" fill="url(#paint40_linear_439_31)"/>
<path d="M213.78 309.95L222.82 328.21L198.51 308.03L213.78 309.95Z" fill="url(#paint41_linear_439_31)"/>
<path d="M228.66 281.73L222.82 328.21L213.78 309.95L228.66 281.73Z" fill="url(#paint42_linear_439_31)"/>
<path style="mix-blend-mode:screen" d="M225.51 306.83L213.78 309.95L222.82 328.21L225.51 306.83Z" fill="url(#paint43_linear_439_31)"/>
<path style="mix-blend-mode:screen" d="M228.66 281.73L213.78 309.95L218.19 318.84L228.66 281.73Z" fill="url(#paint44_linear_439_31)"/>
<path style="mix-blend-mode:multiply" d="M211.9 319.14L213.78 309.95L198.51 308.03L211.9 319.14Z" fill="url(#paint45_linear_439_31)"/>
<path style="mix-blend-mode:screen" d="M213.78 309.95L207.32 315.34L211.9 319.14L213.78 309.95Z" fill="url(#paint46_linear_439_31)"/>
<path style="mix-blend-mode:screen" d="M228.66 281.73L198.51 308.03L206.15 308.99L228.66 281.73Z" fill="url(#paint47_linear_439_31)"/>
</g>
<g filter="url(#filter0_f_439_31)">
<path d="M1735.62 202.46L1669.03 131.98L1757.56 153.5L1735.62 202.46Z" fill="url(#paint48_linear_439_31)"/>
<path d="M1669.03 131.98L1754.21 116.97L1757.56 153.5L1669.03 131.98Z" fill="url(#paint49_linear_439_31)"/>
<path style="mix-blend-mode:screen" d="M1756.76 144.7L1669.03 131.98L1755.28 128.61L1756.76 144.7Z" fill="url(#paint50_linear_439_31)"/>
<path style="mix-blend-mode:screen" d="M1669.03 131.98L1748.19 174.41L1735.62 202.46L1669.03 131.98Z" fill="url(#paint51_linear_439_31)"/>
<path style="mix-blend-mode:screen" d="M1748.19 174.41L1699.09 163.79L1757.56 153.5L1748.19 174.41Z" fill="url(#paint52_linear_439_31)"/>
<path style="mix-blend-mode:screen" d="M1755.98 136.24L1669.03 131.98L1754.21 116.97L1755.98 136.24Z" fill="url(#paint53_linear_439_31)"/>
</g>
<g filter="url(#filter1_f_439_31)">
<path d="M349.41 378.4L415.2 345.78L382.38 432.92L349.41 378.4Z" fill="url(#paint54_linear_439_31)"/>
<path d="M415.2 345.78L413.85 408.54L382.38 432.92L415.2 345.78Z" fill="url(#paint55_linear_439_31)"/>
<path style="mix-blend-mode:screen" d="M415.2 345.78L366.09 405.99L382.38 432.92L415.2 345.78Z" fill="url(#paint56_linear_439_31)"/>
<path style="mix-blend-mode:screen" d="M354.27 386.43L415.2 345.78L374.84 420.44L354.27 386.43Z" fill="url(#paint57_linear_439_31)"/>
<path style="mix-blend-mode:screen" d="M382.38 432.92L414.53 376.93L413.85 408.54L382.38 432.92Z" fill="url(#paint58_linear_439_31)"/>
</g>
<g filter="url(#filter2_f_439_31)">
<path d="M319 224.01L412.21 165L363.91 237.5L319 224.01Z" fill="url(#paint59_linear_439_31)"/>
<path d="M412.21 165L331.98 176.76L319 224.01L412.21 165Z" fill="url(#paint60_linear_439_31)"/>
</g>
<g filter="url(#filter3_f_439_31)">
<path d="M442 100.75L494.95 87L459.5 112.42L442 100.75Z" fill="url(#paint61_linear_439_31)"/>
<path d="M459.5 112.42L459.4 140.29L442 100.75L459.5 112.42Z" fill="url(#paint62_linear_439_31)"/>
<path d="M494.95 87L459.4 140.29L459.5 112.42L494.95 87Z" fill="url(#paint63_linear_439_31)"/>
<path style="mix-blend-mode:screen" d="M475.75 115.78L459.5 112.42L459.4 140.29L475.75 115.78Z" fill="url(#paint64_linear_439_31)"/>
<path style="mix-blend-mode:screen" d="M494.95 87L459.5 112.42L459.46 126L494.95 87Z" fill="url(#paint65_linear_439_31)"/>
<path style="mix-blend-mode:multiply" d="M451.58 122.53L459.5 112.42L442 100.75L451.58 122.53Z" fill="url(#paint66_linear_439_31)"/>
<path style="mix-blend-mode:screen" d="M459.5 112.42L448.3 115.07L451.58 122.53L459.5 112.42Z" fill="url(#paint67_linear_439_31)"/>
<path style="mix-blend-mode:screen" d="M494.95 87L442 100.75L450.75 106.58L494.95 87Z" fill="url(#paint68_linear_439_31)"/>
</g>
<g filter="url(#filter4_f_439_31)">
<path d="M1413.23 426.11L1344.87 340.76L1421.58 380.39L1413.23 426.11Z" fill="url(#paint69_linear_439_31)"/>
<path d="M1344.87 340.76L1365.25 418.51L1413.23 426.11L1344.87 340.76Z" fill="url(#paint70_linear_439_31)"/>
</g>
<path opacity="0.64" d="M605.53 16L596 59.8L640.38 47.83L605.53 16Z" stroke="white" stroke-miterlimit="10"/>
<path d="M239.5 27L237 60.86L269.02 47.17L239.5 27Z" stroke="url(#paint71_linear_439_31)" stroke-miterlimit="10"/>
<path opacity="0.17" d="M721.64 216.58L705 126L806.81 144.2L721.64 216.58Z" stroke="white" stroke-miterlimit="10"/>
<path d="M452.63 280.06L426.32 260.9L471.3 236.39L452.63 280.06Z" stroke="white" stroke-miterlimit="10"/>
<path d="M1604.89 290.26L1623.33 268.71L1580.26 256.99L1604.89 290.26Z" stroke="url(#paint72_linear_439_31)" stroke-miterlimit="10"/>
<path opacity="0.15" d="M601.04 292.03L596 215L639.75 252.16L601.04 292.03Z" stroke="white" stroke-miterlimit="10"/>
<g style="mix-blend-mode:overlay">
<path d="M906.86 209.32L917.31 162.87L969.57 203.52L906.86 209.32Z" stroke="white" stroke-miterlimit="10"/>
</g>
<path opacity="0.26" d="M1352.06 314.34L1381.67 346.53L1352.77 353.75L1352.06 314.34Z" stroke="white" stroke-miterlimit="10"/>
<path opacity="0.32" d="M1184.82 326.14L1174 236L1241.31 285.88L1184.82 326.14Z" stroke="white" stroke-miterlimit="10"/>
<path d="M1241 42.21L1286.56 43.51L1280.93 11L1241 42.21Z" stroke="url(#paint73_linear_439_31)" stroke-miterlimit="10"/>
<g style="mix-blend-mode:overlay">
<path d="M1199.12 227.52L1231.64 167.13L1259.51 240.68L1199.12 227.52Z" stroke="white" stroke-miterlimit="10"/>
</g>
<path opacity="0.43" d="M1502.08 129.43L1485 116.51L1506.66 108L1502.08 129.43Z" stroke="white" stroke-miterlimit="10"/>
</g>
<defs>
<filter id="filter0_f_439_31" x="1612.03" y="59.97" width="202.53" height="199.49" filterUnits="userSpaceOnUse" color-interpolation-filters="sRGB">
<feFlood flood-opacity="0" result="BackgroundImageFix"/>
<feBlend mode="normal" in="SourceGraphic" in2="BackgroundImageFix" result="shape"/>
<feGaussianBlur stdDeviation="28.5" result="effect1_foregroundBlur_439_31"/>
</filter>
<filter id="filter1_f_439_31" x="315.41" y="311.78" width="133.79" height="155.14" filterUnits="userSpaceOnUse" color-interpolation-filters="sRGB">
<feFlood flood-opacity="0" result="BackgroundImageFix"/>
<feBlend mode="normal" in="SourceGraphic" in2="BackgroundImageFix" result="shape"/>
<feGaussianBlur stdDeviation="17" result="effect1_foregroundBlur_439_31"/>
</filter>
<filter id="filter2_f_439_31" x="279" y="125" width="173.21" height="152.5" filterUnits="userSpaceOnUse" color-interpolation-filters="sRGB">
<feFlood flood-opacity="0" result="BackgroundImageFix"/>
<feBlend mode="normal" in="SourceGraphic" in2="BackgroundImageFix" result="shape"/>
<feGaussianBlur stdDeviation="20" result="effect1_foregroundBlur_439_31"/>
</filter>
<filter id="filter3_f_439_31" x="431" y="76" width="74.95" height="75.29" filterUnits="userSpaceOnUse" color-interpolation-filters="sRGB">
<feFlood flood-opacity="0" result="BackgroundImageFix"/>
<feBlend mode="normal" in="SourceGraphic" in2="BackgroundImageFix" result="shape"/>
<feGaussianBlur stdDeviation="5.5" result="effect1_foregroundBlur_439_31"/>
</filter>
<filter id="filter4_f_439_31" x="1300.87" y="296.76" width="164.71" height="173.35" filterUnits="userSpaceOnUse" color-interpolation-filters="sRGB">
<feFlood flood-opacity="0" result="BackgroundImageFix"/>
<feBlend mode="normal" in="SourceGraphic" in2="BackgroundImageFix" result="shape"/>
<feGaussianBlur stdDeviation="22" result="effect1_foregroundBlur_439_31"/>
</filter>
<linearGradient id="paint0_linear_439_31" x1="61.29" y1="404.77" x2="131.23" y2="229.36" gradientUnits="userSpaceOnUse">
<stop stop-color="#7B5AF2"/>
<stop offset="1" stop-color="#79E8F2"/>
</linearGradient>
<linearGradient id="paint1_linear_439_31" x1="146.59" y1="357.5" x2="225.31" y2="160.05" gradientUnits="userSpaceOnUse">
<stop stop-color="#7B5AF2"/>
<stop offset="1" stop-color="#79E8F2"/>
</linearGradient>
<linearGradient id="paint2_linear_439_31" x1="335.88" y1="433.01" x2="409.94" y2="247.26" gradientUnits="userSpaceOnUse">
<stop stop-color="#7B5AF2"/>
<stop offset="1" stop-color="#79E8F2"/>
</linearGradient>
<linearGradient id="paint3_linear_439_31" x1="509.16" y1="380.27" x2="569.51" y2="228.91" gradientUnits="userSpaceOnUse">
<stop stop-color="#7B5AF2"/>
<stop offset="1" stop-color="#79E8F2"/>
</linearGradient>
<linearGradient id="paint4_linear_439_31" x1="662.31" y1="412.22" x2="702.3" y2="311.92" gradientUnits="userSpaceOnUse">
<stop stop-color="#7B5AF2"/>
<stop offset="1" stop-color="#79E8F2"/>
</linearGradient>
<linearGradient id="paint5_linear_439_31" x1="1804.49" y1="415.3" x2="1894.31" y2="190.01" gradientUnits="userSpaceOnUse">
<stop stop-color="#7B5AF2"/>
<stop offset="1" stop-color="#79E8F2"/>
</linearGradient>
<linearGradient id="paint6_linear_439_31" x1="1587.99" y1="408.91" x2="1623.62" y2="319.54" gradientUnits="userSpaceOnUse">
<stop stop-color="#7B5AF2"/>
<stop offset="1" stop-color="#79E8F2"/>
</linearGradient>
<linearGradient id="paint7_linear_439_31" x1="1687.86" y1="376.24" x2="1722.43" y2="289.53" gradientUnits="userSpaceOnUse">
<stop stop-color="#7B5AF2"/>
<stop offset="1" stop-color="#79E8F2"/>
</linearGradient>
<linearGradient id="paint8_linear_439_31" x1="1344.37" y1="421.95" x2="1387.32" y2="314.22" gradientUnits="userSpaceOnUse">
<stop stop-color="#7B5AF2"/>
<stop offset="1" stop-color="#79E8F2"/>
</linearGradient>
<linearGradient id="paint9_linear_439_31" x1="1800.56" y1="357.25" x2="1749.33" y2="144.02" gradientUnits="userSpaceOnUse">
<stop stop-color="#5A5DF2"/>
<stop offset="1" stop-color="#A0A6FA"/>
</linearGradient>
<linearGradient id="paint10_linear_439_31" x1="1466.31" y1="404.76" x2="1430.75" y2="256.74" gradientUnits="userSpaceOnUse">
<stop stop-color="#5A5DF2"/>
<stop offset="1" stop-color="#A0A6FA"/>
</linearGradient>
<linearGradient id="paint11_linear_439_31" x1="1796.32" y1="283.218" x2="1596.33" y2="432.052" gradientUnits="userSpaceOnUse">
<stop stop-color="#BB88FF"/>
<stop offset="1" stop-color="#006EB7"/>
</linearGradient>
<linearGradient id="paint12_linear_439_31" x1="1713.97" y1="319.643" x2="1661.99" y2="468.099" gradientUnits="userSpaceOnUse">
<stop stop-color="#A664FF"/>
<stop offset="0.45" stop-color="#235FB7"/>
<stop offset="1" stop-color="#231C7F"/>
</linearGradient>
<linearGradient id="paint13_linear_439_31" x1="1825.02" y1="313.91" x2="1715.59" y2="491.746" gradientUnits="userSpaceOnUse">
<stop stop-color="#A664FF"/>
<stop offset="0.45" stop-color="#235FB7"/>
<stop offset="1" stop-color="#231C7F"/>
</linearGradient>
<linearGradient id="paint14_linear_439_31" x1="287.795" y1="284.21" x2="106.004" y2="444.016" gradientUnits="userSpaceOnUse">
<stop stop-color="#A664FF"/>
<stop offset="0.45" stop-color="#235FB7"/>
<stop offset="1" stop-color="#231C7F"/>
</linearGradient>
<linearGradient id="paint15_linear_439_31" x1="258.186" y1="368.104" x2="189.581" y2="581.876" gradientUnits="userSpaceOnUse">
<stop stop-color="#BB88FF"/>
<stop offset="1" stop-color="#006EB7"/>
</linearGradient>
<linearGradient id="paint16_linear_439_31" x1="336.812" y1="335.769" x2="297.985" y2="398.27" gradientUnits="userSpaceOnUse">
<stop stop-color="#A664FF"/>
<stop offset="0.45" stop-color="#235FB7"/>
<stop offset="1" stop-color="#231C7F"/>
</linearGradient>
<linearGradient id="paint17_linear_439_31" x1="325.771" y1="420.725" x2="314.751" y2="288.104" gradientUnits="userSpaceOnUse">
<stop stop-color="#BB88FF"/>
<stop offset="1" stop-color="#006EB7"/>
</linearGradient>
<linearGradient id="paint18_linear_439_31" x1="184.948" y1="190.123" x2="120.14" y2="190.235" gradientUnits="userSpaceOnUse">
<stop stop-color="#FF5992"/>
<stop offset="1" stop-color="#00A2E9"/>
</linearGradient>
<linearGradient id="paint19_linear_439_31" x1="162.072" y1="205.404" x2="113.43" y2="217.521" gradientUnits="userSpaceOnUse">
<stop stop-color="#FF5992"/>
<stop offset="1" stop-color="#00A2E9"/>
</linearGradient>
<linearGradient id="paint20_linear_439_31" x1="157.396" y1="207.36" x2="137.438" y2="205.51" gradientUnits="userSpaceOnUse">
<stop stop-color="#FF5992"/>
<stop offset="1" stop-color="#00A2E9"/>
</linearGradient>
<linearGradient id="paint21_linear_439_31" x1="156.383" y1="209.393" x2="117.616" y2="219.05" gradientUnits="userSpaceOnUse">
<stop stop-color="#FF2E51"/>
<stop offset="1" stop-color="#00A2E9"/>
</linearGradient>
<linearGradient id="paint22_linear_439_31" x1="163.081" y1="198.954" x2="118.162" y2="210.138" gradientUnits="userSpaceOnUse">
<stop stop-color="#FF2E51"/>
<stop offset="1" stop-color="#00A2E9"/>
</linearGradient>
<linearGradient id="paint23_linear_439_31" x1="116.456" y1="179.922" x2="167.792" y2="184.078" gradientUnits="userSpaceOnUse">
<stop stop-color="#FF2E51"/>
<stop offset="1" stop-color="#00A2E9"/>
</linearGradient>
<linearGradient id="paint24_linear_439_31" x1="134.372" y1="199.528" x2="133.209" y2="228.598" gradientUnits="userSpaceOnUse">
<stop stop-color="#FF2E51"/>
<stop offset="1" stop-color="#00A2E9"/>
</linearGradient>
<linearGradient id="paint25_linear_439_31" x1="143.261" y1="188.145" x2="131.413" y2="203.146" gradientUnits="userSpaceOnUse">
<stop stop-color="#FF2E51"/>
<stop offset="1" stop-color="#00A2E9"/>
</linearGradient>
<linearGradient id="paint26_linear_439_31" x1="1686.26" y1="91.7891" x2="1650.02" y2="89.6028" gradientUnits="userSpaceOnUse">
<stop stop-color="#FF5992"/>
<stop offset="1" stop-color="#00A2E9"/>
</linearGradient>
<linearGradient id="paint27_linear_439_31" x1="1660.81" y1="104.034" x2="1629.59" y2="91.9696" gradientUnits="userSpaceOnUse">
<stop stop-color="#FF5992"/>
<stop offset="1" stop-color="#00A2E9"/>
</linearGradient>
<linearGradient id="paint28_linear_439_31" x1="1657.14" y1="109.21" x2="1627.43" y2="97.7236" gradientUnits="userSpaceOnUse">
<stop stop-color="#FF2E51"/>
<stop offset="1" stop-color="#00A2E9"/>
</linearGradient>
<linearGradient id="paint29_linear_439_31" x1="1650.94" y1="105.291" x2="1628.16" y2="96.4841" gradientUnits="userSpaceOnUse">
<stop stop-color="#FF2E51"/>
<stop offset="1" stop-color="#00A2E9"/>
</linearGradient>
<linearGradient id="paint30_linear_439_31" x1="1650.94" y1="105.291" x2="1628.16" y2="96.4842" gradientUnits="userSpaceOnUse">
<stop stop-color="#FF2E51"/>
<stop offset="1" stop-color="#00A2E9"/>
</linearGradient>
<linearGradient id="paint31_linear_439_31" x1="1652.92" y1="94.2314" x2="1632.21" y2="86.2272" gradientUnits="userSpaceOnUse">
<stop stop-color="#FF2E51"/>
<stop offset="1" stop-color="#00A2E9"/>
</linearGradient>
<linearGradient id="paint32_linear_439_31" x1="1729.83" y1="293.287" x2="1774.86" y2="332.762" gradientUnits="userSpaceOnUse">
<stop stop-color="#FF5992"/>
<stop offset="1" stop-color="#00A2E9"/>
</linearGradient>
<linearGradient id="paint33_linear_439_31" x1="1695.73" y1="282.065" x2="1831.56" y2="322.277" gradientUnits="userSpaceOnUse">
<stop stop-color="#FF5992"/>
<stop offset="1" stop-color="#00A2E9"/>
</linearGradient>
<linearGradient id="paint34_linear_439_31" x1="1726.16" y1="296.073" x2="1774.88" y2="398.307" gradientUnits="userSpaceOnUse">
<stop stop-color="#FF5992"/>
<stop offset="1" stop-color="#00A2E9"/>
</linearGradient>
<linearGradient id="paint35_linear_439_31" x1="1681.16" y1="275.148" x2="1733.09" y2="293.721" gradientUnits="userSpaceOnUse">
<stop stop-color="#FF2E51"/>
<stop offset="1" stop-color="#00A2E9"/>
</linearGradient>
<linearGradient id="paint36_linear_439_31" x1="1700.13" y1="284.053" x2="1775.7" y2="311.089" gradientUnits="userSpaceOnUse">
<stop stop-color="#FF2E51"/>
<stop offset="1" stop-color="#00A2E9"/>
</linearGradient>
<linearGradient id="paint37_linear_439_31" x1="1795.96" y1="291.674" x2="1742.09" y2="290.623" gradientUnits="userSpaceOnUse">
<stop stop-color="#FF2E51"/>
<stop offset="1" stop-color="#00A2E9"/>
</linearGradient>
<linearGradient id="paint38_linear_439_31" x1="1799.33" y1="333.25" x2="1772.07" y2="332.721" gradientUnits="userSpaceOnUse">
<stop stop-color="#FF2E51"/>
<stop offset="1" stop-color="#00A2E9"/>
</linearGradient>
<linearGradient id="paint39_linear_439_31" x1="1813.13" y1="320.894" x2="1778.52" y2="320.208" gradientUnits="userSpaceOnUse">
<stop stop-color="#FF2E51"/>
<stop offset="1" stop-color="#00A2E9"/>
</linearGradient>
<linearGradient id="paint40_linear_439_31" x1="228.471" y1="288.057" x2="194.234" y2="320.641" gradientUnits="userSpaceOnUse">
<stop stop-color="#FF5992"/>
<stop offset="1" stop-color="#00A2E9"/>
</linearGradient>
<linearGradient id="paint41_linear_439_31" x1="233.388" y1="295.598" x2="215.145" y2="313.947" gradientUnits="userSpaceOnUse">
<stop stop-color="#FF5992"/>
<stop offset="1" stop-color="#00A2E9"/>
</linearGradient>
<linearGradient id="paint42_linear_439_31" x1="230.436" y1="297.908" x2="198.018" y2="350.123" gradientUnits="userSpaceOnUse">
<stop stop-color="#FF5992"/>
<stop offset="1" stop-color="#00A2E9"/>
</linearGradient>
<linearGradient id="paint43_linear_439_31" x1="231.095" y1="308.84" x2="206.046" y2="329.421" gradientUnits="userSpaceOnUse">
<stop stop-color="#FF2E51"/>
<stop offset="1" stop-color="#00A2E9"/>
</linearGradient>
<linearGradient id="paint44_linear_439_31" x1="240.395" y1="286.628" x2="189.723" y2="328.252" gradientUnits="userSpaceOnUse">
<stop stop-color="#FF2E51"/>
<stop offset="1" stop-color="#00A2E9"/>
</linearGradient>
<linearGradient id="paint45_linear_439_31" x1="217.889" y1="308.985" x2="207.735" y2="312.796" gradientUnits="userSpaceOnUse">
<stop stop-color="#FF2E51"/>
<stop offset="1" stop-color="#00A2E9"/>
</linearGradient>
<linearGradient id="paint46_linear_439_31" x1="217.609" y1="312.906" x2="211.693" y2="315.132" gradientUnits="userSpaceOnUse">
<stop stop-color="#FF2E51"/>
<stop offset="1" stop-color="#00A2E9"/>
</linearGradient>
<linearGradient id="paint47_linear_439_31" x1="242.163" y1="286.232" x2="214.256" y2="296.69" gradientUnits="userSpaceOnUse">
<stop stop-color="#FF2E51"/>
<stop offset="1" stop-color="#00A2E9"/>
</linearGradient>
<linearGradient id="paint48_linear_439_31" x1="1694.06" y1="159.65" x2="1872.13" y2="218.773" gradientUnits="userSpaceOnUse">
<stop stop-color="#FF5992"/>
<stop offset="1" stop-color="#00A2E9"/>
</linearGradient>
<linearGradient id="paint49_linear_439_31" x1="1676.33" y1="111.681" x2="1776.69" y2="145.55" gradientUnits="userSpaceOnUse">
<stop stop-color="#FF5992"/>
<stop offset="1" stop-color="#00A2E9"/>
</linearGradient>
<linearGradient id="paint50_linear_439_31" x1="1661.04" y1="127.854" x2="1725.96" y2="133.312" gradientUnits="userSpaceOnUse">
<stop stop-color="#FF2E51"/>
<stop offset="1" stop-color="#00A2E9"/>
</linearGradient>
<linearGradient id="paint51_linear_439_31" x1="1648.51" y1="155.849" x2="1823.09" y2="190.004" gradientUnits="userSpaceOnUse">
<stop stop-color="#FF2E51"/>
<stop offset="1" stop-color="#00A2E9"/>
</linearGradient>
<linearGradient id="paint52_linear_439_31" x1="1691.39" y1="151.071" x2="1804.08" y2="173.127" gradientUnits="userSpaceOnUse">
<stop stop-color="#FF2E51"/>
<stop offset="1" stop-color="#00A2E9"/>
</linearGradient>
<linearGradient id="paint53_linear_439_31" x1="1665.82" y1="120.364" x2="1749.97" y2="126.436" gradientUnits="userSpaceOnUse">
<stop stop-color="#FF2E51"/>
<stop offset="1" stop-color="#00A2E9"/>
</linearGradient>
<linearGradient id="paint54_linear_439_31" x1="399.752" y1="351.775" x2="343.503" y2="441.151" gradientUnits="userSpaceOnUse">
<stop stop-color="#FF5992"/>
<stop offset="1" stop-color="#00A2E9"/>
</linearGradient>
<linearGradient id="paint55_linear_439_31" x1="395.289" y1="324.307" x2="399.287" y2="398.107" gradientUnits="userSpaceOnUse">
<stop stop-color="#FF5992"/>
<stop offset="1" stop-color="#00A2E9"/>
</linearGradient>
<linearGradient id="paint56_linear_439_31" x1="408.555" y1="347.021" x2="350.952" y2="468.45" gradientUnits="userSpaceOnUse">
<stop stop-color="#FF2E51"/>
<stop offset="1" stop-color="#00A2E9"/>
</linearGradient>
<linearGradient id="paint57_linear_439_31" x1="391.155" y1="341.954" x2="377.59" y2="392.845" gradientUnits="userSpaceOnUse">
<stop stop-color="#FF2E51"/>
<stop offset="1" stop-color="#00A2E9"/>
</linearGradient>
<linearGradient id="paint58_linear_439_31" x1="409.608" y1="377.547" x2="399.351" y2="416.006" gradientUnits="userSpaceOnUse">
<stop stop-color="#FF2E51"/>
<stop offset="1" stop-color="#00A2E9"/>
</linearGradient>
<linearGradient id="paint59_linear_439_31" x1="401.295" y1="162.966" x2="313.114" y2="262.711" gradientUnits="userSpaceOnUse">
<stop stop-color="#A664FF"/>
<stop offset="0.45" stop-color="#235FB7"/>
<stop offset="1" stop-color="#231C7F"/>
</linearGradient>
<linearGradient id="paint60_linear_439_31" x1="293.145" y1="186.891" x2="441.479" y2="146.545" gradientUnits="userSpaceOnUse">
<stop stop-color="#BB88FF"/>
<stop offset="1" stop-color="#006EB7"/>
</linearGradient>
<linearGradient id="paint61_linear_439_31" x1="490.74" y1="85.95" x2="428.99" y2="105.11" gradientUnits="userSpaceOnUse">
<stop stop-color="#FF5992"/>
<stop offset="1" stop-color="#00A2E9"/>
</linearGradient>
<linearGradient id="paint62_linear_439_31" x1="492.18" y1="98.17" x2="458.69" y2="109.59" gradientUnits="userSpaceOnUse">
<stop stop-color="#FF5992"/>
<stop offset="1" stop-color="#00A2E9"/>
</linearGradient>
<linearGradient id="paint63_linear_439_31" x1="487.16" y1="99.22" x2="415.74" y2="143.54" gradientUnits="userSpaceOnUse">
<stop stop-color="#FF5992"/>
<stop offset="1" stop-color="#00A2E9"/>
</linearGradient>
<linearGradient id="paint64_linear_439_31" x1="481.34" y1="113.02" x2="438.15" y2="123.04" gradientUnits="userSpaceOnUse">
<stop stop-color="#FF2E51"/>
<stop offset="1" stop-color="#00A2E9"/>
</linearGradient>
<linearGradient id="paint65_linear_439_31" x1="506.22" y1="91.43" x2="418.85" y2="111.7" gradientUnits="userSpaceOnUse">
<stop stop-color="#FF2E51"/>
<stop offset="1" stop-color="#00A2E9"/>
</linearGradient>
<linearGradient id="paint66_linear_439_31" x1="465.06" y1="105.18" x2="450.31" y2="103.68" gradientUnits="userSpaceOnUse">
<stop stop-color="#FF2E51"/>
<stop offset="1" stop-color="#00A2E9"/>
</linearGradient>
<linearGradient id="paint67_linear_439_31" x1="462.33" y1="109.82" x2="453.73" y2="108.95" gradientUnits="userSpaceOnUse">
<stop stop-color="#FF2E51"/>
<stop offset="1" stop-color="#00A2E9"/>
</linearGradient>
<linearGradient id="paint68_linear_439_31" x1="508.63" y1="92.03" x2="468.06" y2="87.91" gradientUnits="userSpaceOnUse">
<stop stop-color="#FF2E51"/>
<stop offset="1" stop-color="#00A2E9"/>
</linearGradient>
<linearGradient id="paint69_linear_439_31" x1="1356.12" y1="364.432" x2="1428.13" y2="409.452" gradientUnits="userSpaceOnUse">
<stop stop-color="#A664FF"/>
<stop offset="0.45" stop-color="#235FB7"/>
<stop offset="1" stop-color="#231C7F"/>
</linearGradient>
<linearGradient id="paint70_linear_439_31" x1="1410.75" y1="446.847" x2="1354.74" y2="303.822" gradientUnits="userSpaceOnUse">
<stop stop-color="#BB88FF"/>
<stop offset="1" stop-color="#006EB7"/>
</linearGradient>
<linearGradient id="paint71_linear_439_31" x1="236.44" y1="43.87" x2="270.05" y2="43.87" gradientUnits="userSpaceOnUse">
<stop stop-color="#7B5AF2"/>
<stop offset="1" stop-color="#7B76F2"/>
</linearGradient>
<linearGradient id="paint72_linear_439_31" x1="1579" y1="273.6" x2="1624.23" y2="273.6" gradientUnits="userSpaceOnUse">
<stop stop-color="#7B5AF2"/>
<stop offset="1" stop-color="#7B76F2"/>
</linearGradient>
<linearGradient id="paint73_linear_439_31" x1="1260.35" y1="50.95" x2="1277.27" y2="8.49" gradientUnits="userSpaceOnUse">
<stop stop-color="#7B5AF2"/>
<stop offset="1" stop-color="#7B76F2"/>
</linearGradient>
<clipPath id="clip0_439_31">
<rect width="1920" height="377" fill="white"/>
</clipPath>
</defs>
</svg>
