<svg width="294" height="75" viewBox="0 0 294 75" fill="none" xmlns="http://www.w3.org/2000/svg">
<g clip-path="url(#clip0_434_30)">
<path d="M99.74 44.9196V29.3495H101.53L107.83 38.8795L114.15 29.3495H115.91V44.9196H114.01V32.7596L107.83 41.9695L101.65 32.7596V44.9196H99.74Z" fill="white"/>
<path d="M129.5 44.9196V37.1196L122.5 29.3495H124.93L130.5 35.4996L136.05 29.3495H138.5L131.5 37.1496V44.9196H129.5Z" fill="white"/>
<path d="M160.55 44.9196V29.3495H172.8V31.1396H162.49V35.6996H168.74V37.4895H162.5V44.9196H160.55Z" fill="white"/>
<path d="M177.19 44.9196L184.81 29.3495H186.43L194.14 44.9196H192.04L189.93 40.7296H181.32L179.27 44.9196H177.19ZM182.19 38.9196H189.04L185.6 32.0195L182.19 38.9196Z" fill="white"/>
<path d="M202.29 44.9196V29.3495H203.29L213.4 40.9895V29.3495H215.34V44.9196H214.34L204.22 33.2896V44.9296L202.29 44.9196Z" fill="white"/>
<path d="M225.74 29.3495H232.42C233.508 29.2974 234.595 29.4644 235.617 29.8406C236.639 30.2168 237.575 30.7946 238.37 31.5395C239.783 33.0678 240.568 35.0729 240.568 37.1545C240.568 39.2362 239.783 41.2412 238.37 42.7695C237.565 43.5112 236.619 44.0836 235.588 44.4529C234.557 44.8222 233.463 44.9809 232.37 44.9195H225.74V29.3495ZM232.42 31.1395H227.74V43.1395H232.48C233.312 43.1909 234.147 43.0709 234.931 42.7871C235.715 42.5033 236.433 42.0617 237.04 41.4895C238.096 40.2943 238.679 38.7544 238.679 37.1595C238.679 35.5647 238.096 34.0248 237.04 32.8295C236.434 32.2454 235.713 31.7935 234.922 31.5026C234.132 31.2117 233.29 31.0881 232.45 31.1395H232.42Z" fill="white"/>
<path d="M262.41 43.0295C260.843 44.5011 258.775 45.3203 256.625 45.3203C254.475 45.3203 252.407 44.5011 250.84 43.0295C249.373 41.4304 248.56 39.3394 248.56 37.1695C248.56 34.9997 249.373 32.9087 250.84 31.3095C252.401 29.8267 254.472 29 256.625 29C258.778 29 260.849 29.8267 262.41 31.3095C263.887 32.9033 264.708 34.9963 264.708 37.1695C264.708 39.3427 263.887 41.4357 262.41 43.0295ZM252.29 41.7295C253.443 42.8691 254.999 43.5081 256.62 43.5081C258.241 43.5081 259.797 42.8691 260.95 41.7295C261.529 41.1296 261.981 40.4194 262.28 39.6412C262.579 38.863 262.718 38.0327 262.69 37.1995C262.719 36.3603 262.58 35.5236 262.281 34.7388C261.983 33.954 261.53 33.2369 260.95 32.6295C259.801 31.4827 258.244 30.8387 256.62 30.8387C254.996 30.8387 253.439 31.4827 252.29 32.6295C251.711 33.2373 251.26 33.9548 250.963 34.7397C250.666 35.5245 250.529 36.3609 250.56 37.1995C250.531 38.0319 250.669 38.8617 250.966 39.6398C251.263 40.4178 251.713 41.1284 252.29 41.7295Z" fill="white"/>
<path d="M273.81 44.9196V29.3495H275.6L281.9 38.8795L288.22 29.3495H289.98V44.9196H288.08V32.7596L281.9 41.9695L275.71 32.7596V44.9196H273.81Z" fill="white"/>
<path d="M38.32 0V27.11L27.06 38.37L38.32 49.63V76.65L0 38.32L38.32 0Z" fill="url(#paint0_linear_434_30)"/>
<path d="M45.5 38.86L40.11 44.67L33.82 38.37L45.5 26.84V38.86Z" fill="url(#paint1_linear_434_30)"/>
<path d="M50.48 1.32001L87.48 38.32L50.48 75.32V1.32001Z" fill="url(#paint2_linear_434_30)"/>
<path d="M38.32 0C38.32 0 11.85 40.3 14.47 47.86C17.09 55.42 38.32 49.63 38.32 49.63V76.63L0 38.31L38.32 0Z" fill="url(#paint3_linear_434_30)"/>
<path d="M33.82 38.37L42.77 35.33L45.5 26.84L33.82 38.37Z" fill="url(#paint4_linear_434_30)"/>
<path d="M40.11 44.67L45.5 38.86V26.84L42.77 35.33L40.11 44.67Z" fill="url(#paint5_linear_434_30)"/>
<path d="M50.48 1.32001C50.48 1.32001 53.12 33.52 63.65 37.8C74.18 42.08 87.48 38.32 87.48 38.32L50.48 1.32001Z" fill="url(#paint6_linear_434_30)"/>
<path d="M50.48 75.32C50.48 75.32 56.8 54.24 62.19 48.21C67.58 42.18 87.48 38.32 87.48 38.32L50.48 75.32Z" fill="url(#paint7_linear_434_30)"/>
<path opacity="0.29" d="M38.32 0L0 38.32L38.32 27.11V0Z" fill="#9EF0FF"/>
<path d="M28.74 15.39L25.64 21.11C24.6133 23.0167 23.5867 24.9267 22.56 26.84C20.56 30.68 18.49 34.5 16.81 38.48C15.92 40.4389 15.2298 42.4826 14.75 44.58C14.5168 45.6036 14.5168 46.6665 14.75 47.69C14.8874 48.1826 15.1295 48.6397 15.46 49.03C15.7829 49.4232 16.168 49.761 16.6 50.03C17.5177 50.6008 18.5359 50.9911 19.6 51.18C20.6558 51.3838 21.7255 51.5075 22.8 51.55C24.9653 51.6333 27.1339 51.5665 29.29 51.35C27.1381 51.67 24.9655 51.8305 22.79 51.83C21.6969 51.8117 20.6069 51.708 19.53 51.52C18.4319 51.3462 17.3767 50.9662 16.42 50.4C15.4238 49.8193 14.679 48.8891 14.33 47.79C14.1814 47.2397 14.1206 46.6693 14.15 46.1C14.1584 45.8223 14.1818 45.5452 14.22 45.27C14.2479 44.9945 14.2913 44.7207 14.35 44.45C14.8037 42.3141 15.4738 40.2301 16.35 38.23C18.08 34.23 20.13 30.4 22.24 26.61C24.35 22.82 26.48 19.09 28.74 15.39Z" fill="white"/>
<path opacity="0.29" d="M38.32 76.65L27.06 38.37L38.32 49.63V76.65Z" fill="#9EF0FF"/>
<path opacity="0.29" d="M45.5 38.86L42.77 35.33L33.82 38.37L45.5 38.86Z" fill="#9EF0FF"/>
<path opacity="0.29" d="M50.48 1.32001L69.74 56.06L87.48 38.32L50.48 1.32001Z" fill="#BABCFF"/>
<path d="M40.11 44.67C40.76 42.06 41.46 39.47 42.19 36.88C42.38 36.24 42.53 35.58 42.74 34.95L43.38 33.03C43.81 31.76 44.25 30.49 44.73 29.23C44.38 30.53 44 31.82 43.61 33.1C43.22 34.38 42.8 35.66 42.44 36.96C41.74 39.54 40.93 42.11 40.11 44.67Z" fill="white"/>
<path d="M42.81 35.46L39.32 36.5L42.72 35.19L42.81 35.46Z" fill="white"/>
<path opacity="0.29" d="M59.3 66.51L50.48 42.13V75.32L59.3 66.51Z" fill="#BABCFF"/>
<path d="M52.56 15.39C52.91 17.33 53.33 19.25 53.85 21.14C54.3453 23.0376 54.9429 24.907 55.64 26.74C56.3245 28.5667 57.1607 30.3329 58.14 32.02C59.0475 33.7428 60.325 35.2433 61.8811 36.4138C63.4372 37.5844 65.2332 38.3958 67.14 38.79C69.0386 39.2393 70.9724 39.5237 72.92 39.64C74.8748 39.76 76.8352 39.76 78.79 39.64C80.7516 39.5535 82.7075 39.3666 84.65 39.08C80.7821 39.8687 76.8355 40.2043 72.89 40.08C70.9095 40.0093 68.9404 39.7481 67.01 39.3C65.0591 38.8327 63.2114 38.0089 61.56 36.87C60.0056 35.5989 58.706 34.0448 57.73 32.29C56.7395 30.5747 55.9126 28.7701 55.26 26.9C53.9481 23.1718 53.0428 19.3127 52.56 15.39Z" fill="white"/>
<path d="M55.3 61.46C56.0531 58.9756 57.0097 56.5574 58.16 54.23C59.2794 51.8675 60.7234 49.673 62.45 47.71C62.9025 47.2275 63.3905 46.7796 63.91 46.37C64.4374 45.9726 64.9959 45.6181 65.58 45.31C66.7058 44.6579 67.8676 44.0703 69.06 43.55C71.4325 42.4975 73.905 41.6867 76.44 41.13C75.2 41.5 73.98 41.93 72.78 42.41C71.58 42.89 70.4 43.41 69.24 43.94C68.08 44.47 66.94 45.1 65.83 45.75C64.7045 46.3542 63.69 47.1455 62.83 48.09C61.123 50.0085 59.671 52.1395 58.51 54.43C57.9 55.56 57.33 56.72 56.8 57.9C56.27 59.08 55.74 60.26 55.3 61.46Z" fill="white"/>
<path d="M68.98 24.97L69.81 26.47C70.057 26.9301 70.4322 27.3087 70.89 27.56L72.4 28.38L70.89 29.21C70.4322 29.4612 70.057 29.8398 69.81 30.3L68.98 31.8L68.16 30.3C67.9094 29.8391 67.5308 29.4606 67.07 29.21L65.57 28.38L67.07 27.56C67.5308 27.3093 67.9094 26.9308 68.16 26.47L68.98 24.97Z" fill="white"/>
</g>
<defs>
<linearGradient id="paint0_linear_434_30" x1="39.74" y1="-23.8" x2="20.78" y2="51.09" gradientUnits="userSpaceOnUse">
<stop stop-color="#7B5AF2"/>
<stop offset="1" stop-color="#79E8F2"/>
</linearGradient>
<linearGradient id="paint1_linear_434_30" x1="47.9" y1="44" x2="34.63" y2="25.66" gradientUnits="userSpaceOnUse">
<stop stop-color="#7B5AF2"/>
<stop offset="1" stop-color="#79E8F2"/>
</linearGradient>
<linearGradient id="paint2_linear_434_30" x1="72.57" y1="37.42" x2="33.78" y2="39" gradientUnits="userSpaceOnUse">
<stop stop-color="#5A5DF2"/>
<stop offset="1" stop-color="#A0A6FA"/>
</linearGradient>
<linearGradient id="paint3_linear_434_30" x1="18.77" y1="13.32" x2="22.45" y2="68.08" gradientUnits="userSpaceOnUse">
<stop stop-color="#5A9EF2"/>
<stop offset="1" stop-color="#5ADBF2"/>
</linearGradient>
<linearGradient id="paint4_linear_434_30" x1="42.47" y1="21.5" x2="38.88" y2="35.66" gradientUnits="userSpaceOnUse">
<stop stop-color="#7B5AF2"/>
<stop offset="1" stop-color="#79E8F2"/>
</linearGradient>
<linearGradient id="paint5_linear_434_30" x1="40.39" y1="10.09" x2="43.43" y2="42.34" gradientUnits="userSpaceOnUse">
<stop stop-color="#7B5AF2"/>
<stop offset="1" stop-color="#79E8F2"/>
</linearGradient>
<linearGradient id="paint6_linear_434_30" x1="80.2" y1="-2.49999" x2="60.08" y2="37.52" gradientUnits="userSpaceOnUse">
<stop stop-color="#7B5AF2"/>
<stop offset="1" stop-color="#D4CBFA"/>
</linearGradient>
<linearGradient id="paint7_linear_434_30" x1="93.11" y1="6.23" x2="55.65" y2="80.71" gradientUnits="userSpaceOnUse">
<stop stop-color="#7B5AF2"/>
<stop offset="1" stop-color="#D4CBFA"/>
</linearGradient>
<clipPath id="clip0_434_30">
<rect width="294" height="75" fill="white"/>
</clipPath>
</defs>
</svg>
